<svg width="51" height="51" viewBox="0 0 51 51" fill="none" xmlns="http://www.w3.org/2000/svg">
<g opacity="0.9">
<path d="M30.6182 0.927246C30.7362 0.939892 30.85 0.95254 30.968 0.969401C30.8542 0.95254 30.7362 0.939892 30.6182 0.927246Z" fill="#262626"/>
<path d="M37.9066 3.27959L37.2701 2.93816C37.2532 2.92973 37.2321 2.91708 37.2153 2.90865C37.1478 2.87493 37.0804 2.8412 37.013 2.80748C37.0551 2.82855 37.1015 2.84964 37.1478 2.87072C37.0467 2.81592 36.9455 2.76533 36.8443 2.71054L36.3975 2.5082C36.4355 2.52506 36.4776 2.54614 36.5156 2.563C35.9676 2.31009 35.4112 2.08247 34.8379 1.88014C32.3889 1.30266 29.864 1.06238 25.5181 0.990723C33.5733 1.38695 36.3385 2.53771 37.2659 2.93394C37.4808 3.04354 37.6958 3.15735 37.9066 3.27959Z" fill="#262626"/>
<path d="M31.4952 0.733615C31.1791 0.657741 30.863 0.581867 30.5932 0.522854L30.4246 0.489126C29.4972 0.341593 27.6552 0.632452 25.5181 0.999176C25.7035 0.973884 25.8848 0.952807 26.0703 0.931731C29.6068 0.52707 30.6311 0.594517 31.4952 0.737835V0.733615Z" fill="#262626"/>
<path d="M28.886 0.227695C28.6078 0.189758 28.2622 0.151821 27.9924 0.122314C27.9924 0.122314 27.984 0.122314 27.9798 0.122314C27.9292 0.13496 27.9207 0.139178 25.5181 0.994867C28.3085 0.252989 28.5825 0.24877 28.9577 0.24034C28.9366 0.24034 28.9113 0.236129 28.886 0.231914V0.227695Z" fill="#262626"/>
<path d="M16.974 48.9343C17.033 48.9554 17.0962 48.9765 17.1594 49.0018C17.6062 49.1535 18.1627 49.3263 18.5884 49.457C19.031 49.5835 19.6253 49.7226 20.0721 49.828C14.2594 48.4074 9.29806 45.225 5.33154 40.3606L6.44857 41.739C6.58768 41.8949 6.70992 42.034 6.82794 42.1605C7.24103 42.5904 7.73 43.0878 8.22739 43.5684C8.53511 43.8508 8.91869 44.188 9.44981 44.6601C9.7238 44.8793 10.0442 45.1238 10.3729 45.3683C13.1929 47.4464 15.1193 48.2135 16.9782 48.9385L16.974 48.9343Z" fill="#262626"/>
<path d="M26.7823 0.0674321C26.7444 0.0547865 26.698 0.0379359 26.6601 0.0252903C26.6601 0.0252903 26.6559 0.0252903 26.6516 0.0252903C26.3903 0.0126446 26.2301 0.0084258 26.2133 0.0084258C26.0657 0.0084258 25.8803 0 25.7243 0C26.0194 0.0126456 26.0278 0.0210725 26.1627 0.193896C26.1065 0.396226 25.8929 0.663187 25.522 0.994784C26.7064 0.337211 26.7444 0.210749 26.7865 0.0674321H26.7823Z" fill="#262626"/>
<path d="M2.01351 34.4341C6.63338 45.3431 18.2041 49.5204 22.2929 50.2075C22.314 50.2075 22.3308 50.2117 22.3519 50.2159C22.5669 50.2412 22.8367 50.2707 23.0474 50.2918L23.4774 50.3297C23.4774 50.3297 23.4942 50.3297 23.4984 50.3297C21.0873 50.1063 4.5047 45.2124 0.77002 30.1599C0.812172 30.3833 0.850109 30.6025 0.892261 30.8048C1.17046 31.8544 1.5962 33.2286 1.95449 34.274C1.97557 34.3288 1.99665 34.3793 2.01351 34.4341Z" fill="#262626"/>
<path d="M24.8141 0.193752C25.3874 0.408728 25.4169 0.535182 25.5181 0.99464C25.9354 0.0546478 25.067 0.0377921 24.2999 0.0251465C24.0301 0.0377921 23.6718 0.0630767 23.4062 0.0841528L23.1533 0.105237C23.5453 0.0799453 24.3631 0.0251439 24.8141 0.193752Z" fill="#262626"/>
<path d="M24.9488 50.4057C25.0458 50.4057 25.1385 50.4099 25.2355 50.4099H25.2776C25.2776 50.4099 25.3113 50.4099 25.324 50.4099C25.4336 50.4099 25.539 50.4099 25.6486 50.4099C25.7413 50.4099 25.834 50.4099 25.9141 50.4099C25.9183 50.4099 25.9226 50.4099 25.9268 50.4099C24.0131 50.3762 -3.36896 39.9983 1.05701 18.9138C1.05701 18.9138 1.05701 18.9138 1.05701 18.918C0.905262 19.5124 0.757729 20.3133 0.631273 20.9118C0.509032 21.679 0.407867 22.7117 0.323562 23.4831C-0.127466 42.3968 22.445 50.1654 24.9488 50.4057Z" fill="#262626"/>
<path d="M20.822 0.438447C20.7714 0.446877 20.7166 0.459526 20.666 0.467957C23.7473 -0.0589451 25.033 0.699793 25.5219 0.994858C24.6494 0.0337896 23.1319 0.0506473 20.8262 0.438447H20.822Z" fill="#262626"/>
<path d="M3.51881 12.8185C-7.60513 34.2655 23.5537 49.4065 27.28 50.3465C27.3053 50.3465 27.3306 50.3465 27.3558 50.3423L27.5202 50.3297C27.5455 50.3297 27.5708 50.3255 27.6003 50.3212C27.79 50.3044 28.0176 50.2791 28.2115 50.2622C28.2368 50.2622 28.2621 50.258 28.2832 50.2538C23.8699 46.8985 18.4997 45.0691 14.2465 41.4609C12.1642 39.6947 7.28721 35.5596 4.43773 30.0292C-1.26545 18.9643 3.80966 11.908 6.30085 8.87305C6.21234 8.97421 6.12803 9.07537 6.04373 9.17232L5.62221 9.67393C4.96463 10.5802 4.13424 11.8237 3.53989 12.7805C3.53146 12.7932 3.52724 12.8058 3.51881 12.8185Z" fill="#262626"/>
<path d="M19.684 0.67849C19.684 0.67849 19.7135 0.67006 19.7303 0.665845C19.6924 0.674276 19.646 0.682705 19.6123 0.691135C19.3341 0.754364 18.9716 0.851312 18.6976 0.927186C18.1328 1.08315 17.3867 1.31499 16.8387 1.52153C16.5015 1.64799 16.0547 1.8166 15.7259 1.9557C15.3296 2.12431 14.8112 2.36879 14.4192 2.55005C14.0187 2.73552 13.5002 3.0095 13.1209 3.23291C12.6741 3.49425 12.1219 3.83568 11.6329 4.15182C6.59572 7.61673 2.62078 13.1766 3.16875 19.4446C4.46704 34.2316 21.2141 44.3734 27.5158 48.1924C28.9715 49.0748 29.7415 49.6874 29.8258 50.0302C29.8258 50.0302 29.8553 50.026 29.8679 50.0218C30.2136 49.9586 30.6477 49.8658 30.9934 49.7942C31.006 49.7942 31.0187 49.7899 31.0313 49.7857C31.1536 49.7436 31.2421 49.5665 31.3264 49.4654C31.0397 48.9132 30.4791 48.5169 27.4484 46.5316C19.6502 41.4227 11.8015 35.5467 7.21957 27.2217C-3.12034 8.42605 16.9314 -1.29845 25.522 0.990412C23.857 0.345484 21.8295 0.273826 19.6882 0.674271L19.684 0.67849Z" fill="#262626"/>
<path d="M28.4008 44.4325C33.1472 47.7878 34.2768 48.5845 32.7762 49.3264C32.7931 49.3222 32.81 49.318 32.8226 49.3137C33.0544 49.2421 33.3158 49.1536 33.5729 49.0693C33.75 49.0102 33.9228 48.947 34.0956 48.8838C36.2201 47.8974 34.3696 46.5317 29.9436 43.2733C25.0497 39.6693 18.9546 35.1843 13.7867 28.6255C-1.47237 9.26078 14.8152 -0.324616 25.5134 0.994746C13.3567 -1.63976 -12.8029 15.3223 28.3966 44.4325H28.4008Z" fill="#262626"/>
<path d="M31.1915 40.664C36.7261 44.9087 38.8 46.4978 36.0516 48.0828C36.0727 48.0743 36.0938 48.0617 36.1149 48.0533C36.5743 47.8341 37.1476 47.5306 37.5902 47.3072C39.7315 46.0552 38.8758 44.601 37.6323 43.2184C32.4266 37.4309 25.5136 33.5951 20.1814 27.9509C3.02122 9.78333 14.533 0.745915 25.5178 0.998827C14.3222 -0.0212543 -5.66633 12.4052 31.1915 40.6682V40.664Z" fill="#262626"/>
<path d="M35.4699 37.1529C40.7431 41.3765 42.6231 43.6485 39.8073 45.9332C40.2879 45.5959 40.8991 45.1154 41.3796 44.7487C41.6199 44.5506 41.8728 44.3356 42.113 44.1206C44.3007 42.1184 43.0741 41.0351 28.3546 28.0691C7.01718 9.27766 16.6321 2.64291 23.5872 1.2561C17.2812 2.43215 -0.304645 8.48941 35.4699 37.1529Z" fill="#262626"/>
<path d="M25.2354 1.01587C24.7169 1.06224 24.1605 1.14233 23.583 1.25614C24.3249 1.11704 24.9066 1.04538 25.2354 1.01587Z" fill="#262626"/>
<path d="M25.5178 0.994873C25.5178 0.994873 25.3997 1.0033 25.2354 1.01594C25.3281 1.00751 25.425 0.999088 25.5178 0.994873Z" fill="#262626"/>
<path d="M34.4879 28.8827C43.2345 35.9221 46.5181 39.1425 43.6728 42.6411C43.6939 42.62 43.7108 42.6032 43.7276 42.5821C44.1745 42.1016 44.714 41.4651 45.1355 40.9803C45.1439 40.9677 45.1524 40.9592 45.1608 40.9466C47.652 37.684 45.2704 34.2486 35.0021 26.2692C8.21025 5.4545 22.4029 1.56808 25.5221 0.999023C23.2501 1.28566 4.20158 4.51029 34.4921 28.8827H34.4879Z" fill="#262626"/>
<path d="M36.2963 23.2511C46.1936 30.6446 48.9167 34.4256 47.0662 38.2066C47.142 38.0802 47.2137 37.958 47.2854 37.8357L47.3528 37.7177C47.4034 37.6292 47.4498 37.5491 47.4961 37.469L48.061 36.3815C48.1284 36.2424 48.1959 36.1033 48.2633 35.9684C50.4721 30.9017 42.1007 24.8065 36.545 20.7641C18.4407 7.59155 20.5567 2.74827 25.518 1.00317C21.2817 2.10756 13.8461 6.49139 36.2963 23.2595V23.2511Z" fill="#262626"/>
<path d="M36.7765 17.5101C45.4177 23.5968 50.594 27.6687 49.5191 32.7481C49.5697 32.5752 49.6245 32.4024 49.6708 32.2338C49.8437 31.6015 50.0165 30.8892 50.1556 30.3201C50.8975 25.2576 45.6706 21.3965 37.0842 15.5247C31.4105 11.6425 20.8514 4.41763 25.5177 0.994873C18.2 4.42184 32.1819 14.2728 36.7765 17.5101Z" fill="#262626"/>
<path d="M37.4135 13.0335C47.1506 19.3521 50.4596 22.2184 50.6366 26.5685C50.6408 26.4842 50.6493 26.3957 50.6535 26.3114L50.683 25.2491L50.6577 24.2206C50.6535 24.1026 50.6493 23.9888 50.6408 23.8708C50.2657 19.3057 44.1831 15.5415 36.4904 10.7867C31.078 7.44408 24.9449 3.65039 25.5224 0.999023C22.989 3.6799 31.6724 9.31142 37.4177 13.0377L37.4135 13.0335Z" fill="#262626"/>
<path d="M36.7811 8.99949C45.7511 14.0915 49.1275 16.5658 50.2024 20.2963C50.0675 19.6513 49.8483 18.8336 49.667 18.1423C49.6249 17.999 49.5827 17.8599 49.5406 17.7166C48.0821 13.9229 43.1967 11.1998 34.7114 6.74014C28.7132 3.58295 26.7363 2.34789 25.5181 0.999023C26.2178 3.00547 30.648 5.52194 36.7811 9.00371V8.99949Z" fill="#262626"/>
<path d="M48.2588 14.4246C48.2209 14.3487 48.1872 14.2728 48.1492 14.1969L47.6392 13.1895L47.2978 12.5867C47.2345 12.4771 47.1713 12.3675 47.1039 12.2579C45.9489 10.4622 43.8582 9.12602 40.8654 7.55796C35.9209 4.96982 30.6182 3.22894 25.522 0.994873C27.1111 2.00652 30.0323 3.34697 33.729 5.0457C43.5378 9.55176 46.5601 11.4992 48.2631 14.4246H48.2588Z" fill="#262626"/>
<path d="M45.1989 9.52225C45.1525 9.46324 45.1104 9.41266 45.0598 9.34943C45.0303 9.31149 45.0008 9.27777 44.9671 9.23983C44.9291 9.19346 44.8912 9.1471 44.8533 9.10073C44.4823 8.67078 44.065 8.20288 43.732 7.82773C41.5401 5.58102 35.4112 3.28373 25.5181 0.994873C40.5242 5.49251 43.4285 7.60012 45.1989 9.52225Z" fill="#262626"/>
<path d="M41.0849 5.42927C40.7181 5.14685 40.3177 4.85179 39.972 4.59888C39.9004 4.54829 39.8287 4.50194 39.7571 4.45135C37.3755 2.95074 32.5912 1.78733 25.5181 0.994873C29.9187 1.64823 37.7886 3.12355 41.3968 5.68219C41.2914 5.59367 41.186 5.50936 41.0849 5.42927Z" fill="#262626"/>
<path d="M31.099 0.990646C31.6849 1.07074 32.2666 1.17612 32.8315 1.30679C33.8389 1.4754 33.9654 1.51334 34.7325 1.76204C34.7114 1.75361 34.6862 1.74096 34.6651 1.73675C34.2815 1.585 33.7588 1.40795 33.3668 1.26885H33.3584C32.4352 0.969572 31.3519 0.931642 30.0958 0.881059C30.1548 0.885275 30.2096 0.893696 30.2686 0.897911C29.6279 0.838898 28.9745 0.805176 28.3128 0.805176C27.2969 0.855758 27.162 0.864198 25.5181 0.999085C28.1315 0.889489 29.3118 0.910561 31.099 0.994866V0.990646ZM30.6143 0.93164C30.7323 0.944286 30.8461 0.956934 30.9641 0.973795C30.8503 0.956934 30.7323 0.944286 30.6143 0.93164Z" fill="#262626"/>
</g>
</svg>
