<svg width="51" height="51" viewBox="0 0 51 51" fill="none" xmlns="http://www.w3.org/2000/svg">
<g opacity="0.9">
<path d="M30.6172 0.927246C30.7352 0.939892 30.849 0.95254 30.9671 0.969401C30.8532 0.95254 30.7352 0.939892 30.6172 0.927246Z" fill="#262626"/>
<path d="M37.9041 3.27959L37.2676 2.93816C37.2508 2.92973 37.2297 2.91708 37.2128 2.90865C37.1454 2.87493 37.078 2.8412 37.0105 2.80748C37.0527 2.82855 37.099 2.84964 37.1454 2.87072C37.0442 2.81592 36.9431 2.76533 36.8419 2.71054L36.3951 2.5082C36.433 2.52506 36.4752 2.54614 36.5131 2.563C35.9651 2.31009 35.4087 2.08247 34.8355 1.88014C32.3864 1.30266 29.8615 1.06238 25.5156 0.990723C33.5709 1.38695 36.3361 2.53771 37.2634 2.93394C37.4784 3.04354 37.6934 3.15735 37.9041 3.27959Z" fill="#262626"/>
<path d="M31.4928 0.733615C31.1767 0.657741 30.8605 0.581867 30.5907 0.522854L30.4221 0.489126C29.4948 0.341593 27.6527 0.632452 25.5156 0.999176C25.7011 0.973884 25.8823 0.952807 26.0678 0.931731C29.6044 0.52707 30.6287 0.594517 31.4928 0.737835V0.733615Z" fill="#262626"/>
<path d="M28.8836 0.227695C28.6054 0.189758 28.2597 0.151821 27.99 0.122314C27.99 0.122314 27.9815 0.122314 27.9773 0.122314C27.9267 0.13496 27.9183 0.139178 25.5156 0.994867C28.3061 0.252989 28.5801 0.24877 28.9552 0.24034C28.9342 0.24034 28.9089 0.236129 28.8836 0.231914V0.227695Z" fill="#262626"/>
<path d="M16.9705 48.9343C17.0296 48.9554 17.0928 48.9765 17.156 49.0018C17.6028 49.1535 18.1592 49.3263 18.585 49.457C19.0276 49.5835 19.6219 49.7226 20.0687 49.828C14.2559 48.4074 9.29464 45.225 5.32812 40.3606L6.44516 41.739C6.58426 41.8949 6.7065 42.034 6.82453 42.1605C7.23762 42.5904 7.72658 43.0878 8.22398 43.5684C8.53169 43.8508 8.91527 44.188 9.44639 44.6601C9.72038 44.8793 10.0407 45.1238 10.3695 45.3683C13.1895 47.4464 15.1159 48.2135 16.9748 48.9385L16.9705 48.9343Z" fill="#262626"/>
<path d="M26.7838 0.0674321C26.7459 0.0547865 26.6995 0.0379359 26.6615 0.0252903C26.6615 0.0252903 26.6573 0.0252903 26.6531 0.0252903C26.3918 0.0126446 26.2316 0.0084258 26.2147 0.0084258C26.0672 0.0084258 25.8817 0 25.7258 0C26.0208 0.0126456 26.0293 0.0210725 26.1642 0.193896C26.1079 0.396226 25.8944 0.663187 25.5234 0.994784C26.7079 0.337211 26.7458 0.210749 26.788 0.0674321H26.7838Z" fill="#262626"/>
<path d="M2.01302 34.4341C6.63289 45.3431 18.2037 49.5204 22.2924 50.2075C22.3135 50.2075 22.3303 50.2117 22.3514 50.2159C22.5664 50.2412 22.8362 50.2707 23.0469 50.2918L23.4769 50.3297C23.4769 50.3297 23.4937 50.3297 23.498 50.3297C21.0869 50.1063 4.50421 45.2124 0.769531 30.1599C0.811683 30.3833 0.84962 30.6025 0.891773 30.8048C1.16998 31.8544 1.59571 33.2286 1.95401 34.274C1.97508 34.3288 1.99616 34.3793 2.01302 34.4341Z" fill="#262626"/>
<path d="M24.8131 0.193752C25.3864 0.408728 25.4159 0.535182 25.5171 0.99464C25.9344 0.0546478 25.0661 0.0377921 24.2989 0.0251465C24.0291 0.0377921 23.6708 0.0630767 23.4053 0.0841528L23.1523 0.105237C23.5444 0.0799453 24.3621 0.0251439 24.8131 0.193752Z" fill="#262626"/>
<path d="M24.9484 50.4057C25.0453 50.4057 25.138 50.4099 25.235 50.4099H25.2771C25.2771 50.4099 25.3109 50.4099 25.3235 50.4099C25.4331 50.4099 25.5385 50.4099 25.6481 50.4099C25.7408 50.4099 25.8335 50.4099 25.9136 50.4099C25.9179 50.4099 25.9221 50.4099 25.9263 50.4099C24.0126 50.3762 -3.36945 39.9983 1.05652 18.9138C1.05652 18.9138 1.05652 18.9138 1.05652 18.918C0.904773 19.5124 0.757241 20.3133 0.630785 20.9118C0.508543 21.679 0.407378 22.7117 0.323074 23.4831C-0.127954 42.3968 22.4445 50.1654 24.9484 50.4057Z" fill="#262626"/>
<path d="M20.82 0.438447C20.7694 0.446877 20.7146 0.459526 20.6641 0.467957C23.7454 -0.0589451 25.031 0.699793 25.52 0.994858C24.6474 0.0337896 23.13 0.0506473 20.8242 0.438447H20.82Z" fill="#262626"/>
<path d="M3.51979 12.8185C-7.60416 34.2655 23.5547 49.4065 27.2809 50.3465C27.3062 50.3465 27.3315 50.3465 27.3568 50.3423L27.5212 50.3297C27.5465 50.3297 27.5718 50.3255 27.6013 50.3212C27.791 50.3044 28.0186 50.2791 28.2125 50.2622C28.2378 50.2622 28.2631 50.258 28.2842 50.2538C23.8708 46.8985 18.5007 45.0691 14.2475 41.4609C12.1652 39.6947 7.28819 35.5596 4.43871 30.0292C-1.26448 18.9643 3.81064 11.908 6.30183 8.87305C6.21331 8.97421 6.12901 9.07537 6.0447 9.17232L5.62318 9.67393C4.96561 10.5802 4.13521 11.8237 3.54087 12.7805C3.53244 12.7932 3.52822 12.8058 3.51979 12.8185Z" fill="#262626"/>
<path d="M19.683 0.67849C19.683 0.67849 19.7125 0.67006 19.7294 0.665845C19.6914 0.674276 19.645 0.682705 19.6113 0.691135C19.3331 0.754364 18.9706 0.851312 18.6966 0.927186C18.1318 1.08315 17.3857 1.31499 16.8377 1.52153C16.5005 1.64799 16.0537 1.8166 15.7249 1.9557C15.3287 2.12431 14.8102 2.36879 14.4182 2.55005C14.0177 2.73552 13.4993 3.0095 13.1199 3.23291C12.6731 3.49425 12.1209 3.83568 11.6319 4.15182C6.59475 7.61673 2.6198 13.1766 3.16778 19.4446C4.46606 34.2316 21.2131 44.3734 27.5149 48.1924C28.9705 49.0748 29.7405 49.6874 29.8248 50.0302C29.8248 50.0302 29.8543 50.026 29.8669 50.0218C30.2126 49.9586 30.6468 49.8658 30.9924 49.7942C31.005 49.7942 31.0177 49.7899 31.0303 49.7857C31.1526 49.7436 31.2411 49.5665 31.3254 49.4654C31.0388 48.9132 30.4781 48.5169 27.4474 46.5316C19.6493 41.4227 11.8005 35.5467 7.2186 27.2217C-3.12132 8.42605 16.9305 -1.29845 25.5211 0.990412C23.856 0.345484 21.8285 0.273826 19.6872 0.674271L19.683 0.67849Z" fill="#262626"/>
<path d="M28.3989 44.4325C33.1452 47.7878 34.2749 48.5845 32.7743 49.3264C32.7911 49.3222 32.808 49.318 32.8206 49.3137C33.0525 49.2421 33.3138 49.1536 33.571 49.0693C33.748 49.0102 33.9208 48.947 34.0936 48.8838C36.2181 47.8974 34.3676 46.5317 29.9417 43.2733C25.0478 39.6693 18.9526 35.1843 13.7847 28.6255C-1.47433 9.26078 14.8133 -0.324616 25.5115 0.994746C13.3548 -1.63976 -12.8048 15.3223 28.3947 44.4325H28.3989Z" fill="#262626"/>
<path d="M31.19 40.664C36.7246 44.9087 38.7985 46.4978 36.0502 48.0828C36.0712 48.0743 36.0923 48.0617 36.1134 48.0533C36.5729 47.8341 37.1461 47.5306 37.5887 47.3072C39.7301 46.0552 38.8744 44.601 37.6309 43.2184C32.4251 37.4309 25.5121 33.5951 20.1799 27.9509C3.01976 9.78333 14.5315 0.745915 25.5164 0.998827C14.3207 -0.0212543 -5.6678 12.4052 31.19 40.6682V40.664Z" fill="#262626"/>
<path d="M35.4713 37.1529C40.7446 41.3765 42.6246 43.6485 39.8088 45.9332C40.2893 45.5959 40.9005 45.1154 41.3811 44.7487C41.6213 44.5506 41.8742 44.3356 42.1145 44.1206C44.3022 42.1184 43.0756 41.0351 28.3561 28.0691C7.01865 9.27766 16.6335 2.64291 23.5887 1.2561C17.2827 2.43215 -0.30318 8.48941 35.4713 37.1529Z" fill="#262626"/>
<path d="M25.2344 1.01587C24.7159 1.06224 24.1595 1.14233 23.582 1.25614C24.3239 1.11704 24.9056 1.04538 25.2344 1.01587Z" fill="#262626"/>
<path d="M25.5168 0.994873C25.5168 0.994873 25.3988 1.0033 25.2344 1.01594C25.3271 1.00751 25.4241 0.999088 25.5168 0.994873Z" fill="#262626"/>
<path d="M34.4864 28.8827C43.233 35.9221 46.5166 39.1425 43.6714 42.6411C43.6925 42.62 43.7093 42.6032 43.7262 42.5821C44.173 42.1016 44.7125 41.4651 45.1341 40.9803C45.1425 40.9677 45.1509 40.9592 45.1593 40.9466C47.6505 37.684 45.2689 34.2486 35.0007 26.2692C8.20879 5.4545 22.4014 1.56808 25.5207 0.999023C23.2487 1.28566 4.20012 4.51029 34.4906 28.8827H34.4864Z" fill="#262626"/>
<path d="M36.2963 23.2511C46.1936 30.6446 48.9167 34.4256 47.0662 38.2066C47.142 38.0802 47.2137 37.958 47.2854 37.8357L47.3528 37.7177C47.4034 37.6292 47.4498 37.5491 47.4961 37.469L48.061 36.3815C48.1284 36.2424 48.1959 36.1033 48.2633 35.9684C50.4721 30.9017 42.1007 24.8065 36.545 20.7641C18.4407 7.59155 20.5567 2.74827 25.518 1.00317C21.2817 2.10756 13.8461 6.49139 36.2963 23.2595V23.2511Z" fill="#262626"/>
<path d="M36.7765 17.5101C45.4177 23.5968 50.594 27.6687 49.5191 32.7481C49.5697 32.5752 49.6245 32.4024 49.6708 32.2338C49.8437 31.6015 50.0165 30.8892 50.1556 30.3201C50.8975 25.2576 45.6706 21.3965 37.0842 15.5247C31.4105 11.6425 20.8514 4.41763 25.5177 0.994873C18.2 4.42184 32.1819 14.2728 36.7765 17.5101Z" fill="#262626"/>
<path d="M37.4135 13.0335C47.1506 19.3521 50.4596 22.2184 50.6366 26.5685C50.6408 26.4842 50.6493 26.3957 50.6535 26.3114L50.683 25.2491L50.6577 24.2206C50.6535 24.1026 50.6493 23.9888 50.6408 23.8708C50.2657 19.3057 44.1831 15.5415 36.4904 10.7867C31.078 7.44408 24.9449 3.65039 25.5224 0.999023C22.989 3.6799 31.6724 9.31142 37.4177 13.0377L37.4135 13.0335Z" fill="#262626"/>
<path d="M36.7787 8.99949C45.7486 14.0915 49.125 16.5658 50.1999 20.2963C50.065 19.6513 49.8458 18.8336 49.6646 18.1423C49.6224 17.999 49.5803 17.8599 49.5381 17.7166C48.0797 13.9229 43.1942 11.1998 34.709 6.74014C28.7108 3.58295 26.7338 2.34789 25.5156 0.999023C26.2154 3.00547 30.6455 5.52194 36.7787 9.00371V8.99949Z" fill="#262626"/>
<path d="M48.2603 14.4246C48.2224 14.3487 48.1886 14.2728 48.1507 14.1969L47.6407 13.1895L47.2992 12.5867C47.236 12.4771 47.1728 12.3675 47.1053 12.2579C45.9504 10.4622 43.8596 9.12602 40.8668 7.55796C35.9224 4.96982 30.6196 3.22894 25.5234 0.994873C27.1126 2.00652 30.0337 3.34697 33.7305 5.0457C43.5393 9.55176 46.5616 11.4992 48.2645 14.4246H48.2603Z" fill="#262626"/>
<path d="M45.1965 9.52225C45.1501 9.46324 45.1079 9.41266 45.0574 9.34943C45.0279 9.31149 44.9983 9.27777 44.9646 9.23983C44.9267 9.19346 44.8887 9.1471 44.8508 9.10073C44.4799 8.67078 44.0626 8.20288 43.7296 7.82773C41.5377 5.58102 35.4087 3.28373 25.5156 0.994873C40.5218 5.49251 43.4261 7.60012 45.1965 9.52225Z" fill="#262626"/>
<path d="M41.0824 5.42927C40.7157 5.14685 40.3152 4.85179 39.9696 4.59888C39.8979 4.54829 39.8263 4.50194 39.7546 4.45135C37.373 2.95074 32.5888 1.78733 25.5156 0.994873C29.9163 1.64823 37.7861 3.12355 41.3943 5.68219C41.289 5.59367 41.1836 5.50936 41.0824 5.42927Z" fill="#262626"/>
<path d="M31.0966 0.990646C31.6825 1.07074 32.2642 1.17612 32.829 1.30679C33.8365 1.4754 33.9629 1.51334 34.7301 1.76204C34.709 1.75361 34.6837 1.74096 34.6626 1.73675C34.2791 1.585 33.7564 1.40795 33.3644 1.26885H33.3559C32.4328 0.969572 31.3495 0.931642 30.0933 0.881059C30.1524 0.885275 30.2072 0.893696 30.2662 0.897911C29.6255 0.838898 28.9721 0.805176 28.3103 0.805176C27.2944 0.855758 27.1596 0.864198 25.5156 0.999085C28.1291 0.889489 29.3093 0.910561 31.0966 0.994866V0.990646ZM30.6118 0.93164C30.7298 0.944286 30.8437 0.956934 30.9617 0.973795C30.8479 0.956934 30.7298 0.944286 30.6118 0.93164Z" fill="#262626"/>
</g>
</svg>
