<svg width="25" height="25" viewBox="0 0 25 25" fill="none" xmlns="http://www.w3.org/2000/svg">
<path fill-rule="evenodd" clip-rule="evenodd" d="M4.1001 12.4999C4.1001 12.0029 4.50304 11.5999 5.0001 11.5999L17.7656 11.5999L12.7763 6.8487C12.418 6.50418 12.4068 5.93445 12.7513 5.57615C13.0959 5.21786 13.6656 5.20669 14.0239 5.5512L20.6239 11.8512C20.8004 12.0209 20.9001 12.2551 20.9001 12.4999C20.9001 12.7448 20.8004 12.979 20.6239 13.1487L14.0239 19.4487C13.6656 19.7932 13.0959 19.782 12.7513 19.4237C12.4068 19.0655 12.418 18.4957 12.7763 18.1512L17.7656 13.3999L5.0001 13.3999C4.50304 13.3999 4.1001 12.997 4.1001 12.4999Z" fill="#262626"/>
</svg>
