<svg width="117" height="14" viewBox="0 0 117 14" fill="none" xmlns="http://www.w3.org/2000/svg">
<path d="M0.649658 13.375V0.483324H2.76758V13.375H0.649658ZM2.10458 13.375V11.4412H8.84508V13.375H2.10458Z" fill="#262626"/>
<path d="M10.5174 13.375V4.53499H12.5432V13.375H10.5174ZM11.5303 2.91432C11.1865 2.91432 10.898 2.79769 10.6647 2.56441C10.4437 2.33113 10.3332 2.0426 10.3332 1.69882C10.3332 1.35505 10.4437 1.06652 10.6647 0.83324C10.898 0.599962 11.1865 0.483324 11.5303 0.483324C11.8864 0.483324 12.1749 0.599962 12.3959 0.83324C12.6169 1.06652 12.7274 1.35505 12.7274 1.69882C12.7274 2.0426 12.6169 2.33113 12.3959 2.56441C12.1749 2.79769 11.8864 2.91432 11.5303 2.91432Z" fill="#262626"/>
<path d="M16.1598 13.375V0.851658H18.1856V13.375H16.1598ZM14.0419 6.37666V4.53499H25.6444V6.37666H14.0419ZM21.5006 13.375V0.851658H23.5265V13.375H21.5006Z" fill="#262626"/>
<path d="M27.1171 13.375V0.11499H29.143V13.375H27.1171Z" fill="#262626"/>
<path d="M35.5045 13.5592C34.6205 13.5592 33.8224 13.3627 33.1103 12.9698C32.4105 12.5647 31.8519 12.0122 31.4344 11.3123C31.0292 10.6125 30.8267 9.82671 30.8267 8.95499C30.8267 8.08327 31.0292 7.30363 31.4344 6.61607C31.8396 5.91624 32.3859 5.36374 33.0735 4.95857C33.7733 4.55341 34.5468 4.35082 35.394 4.35082C36.2166 4.35082 36.941 4.54113 37.5672 4.92174C38.2056 5.30235 38.7029 5.82416 39.0589 6.48716C39.4272 7.15016 39.6114 7.90524 39.6114 8.75241C39.6114 8.89974 39.5991 9.05321 39.5746 9.21282C39.5623 9.36016 39.5377 9.52591 39.5009 9.71007H32.2447V8.05257H38.4512L37.6961 8.71557C37.6715 8.17535 37.5672 7.72107 37.383 7.35274C37.1988 6.98441 36.9349 6.70202 36.5911 6.50557C36.2596 6.30913 35.8483 6.21091 35.3572 6.21091C34.8415 6.21091 34.3934 6.32141 34.0127 6.54241C33.6321 6.76341 33.3375 7.07649 33.1287 7.48166C32.92 7.87455 32.8157 8.34724 32.8157 8.89974C32.8157 9.45224 32.9262 9.93721 33.1472 10.3547C33.3682 10.7721 33.6812 11.0975 34.0864 11.3307C34.4916 11.5517 34.9581 11.6622 35.4861 11.6622C35.9404 11.6622 36.3578 11.5824 36.7384 11.4228C37.1313 11.2632 37.4628 11.0299 37.7329 10.723L39.0221 12.0306C38.5924 12.534 38.0705 12.9146 37.4567 13.1724C36.8428 13.4302 36.1921 13.5592 35.5045 13.5592Z" fill="#262626"/>
<path d="M45.1986 13.375V0.483324H47.3165V13.375H45.1986ZM46.6535 13.375V11.4412H53.394V13.375H46.6535Z" fill="#262626"/>
<path d="M58.8491 13.5592C57.9651 13.5592 57.167 13.3627 56.4549 12.9698C55.7551 12.5647 55.1964 12.0122 54.779 11.3123C54.3738 10.6125 54.1712 9.82671 54.1712 8.95499C54.1712 8.08327 54.3738 7.30363 54.779 6.61607C55.1841 5.91624 55.7305 5.36374 56.4181 4.95857C57.1179 4.55341 57.8914 4.35082 58.7386 4.35082C59.5612 4.35082 60.2856 4.54113 60.9117 4.92174C61.5502 5.30235 62.0474 5.82416 62.4035 6.48716C62.7718 7.15016 62.956 7.90524 62.956 8.75241C62.956 8.89974 62.9437 9.05321 62.9191 9.21282C62.9069 9.36016 62.8823 9.52591 62.8455 9.71007H55.5893V8.05257H61.7957L61.0406 8.71557C61.0161 8.17535 60.9117 7.72107 60.7276 7.35274C60.5434 6.98441 60.2794 6.70202 59.9356 6.50557C59.6041 6.30913 59.1928 6.21091 58.7017 6.21091C58.1861 6.21091 57.7379 6.32141 57.3573 6.54241C56.9767 6.76341 56.682 7.07649 56.4733 7.48166C56.2646 7.87455 56.1602 8.34724 56.1602 8.89974C56.1602 9.45224 56.2707 9.93721 56.4917 10.3547C56.7127 10.7721 57.0258 11.0975 57.431 11.3307C57.8361 11.5517 58.3027 11.6622 58.8306 11.6622C59.2849 11.6622 59.7024 11.5824 60.083 11.4228C60.4759 11.2632 60.8074 11.0299 61.0775 10.723L62.3666 12.0306C61.9369 12.534 61.4151 12.9146 60.8012 13.1724C60.1873 13.4302 59.5366 13.5592 58.8491 13.5592Z" fill="#262626"/>
<path d="M68.2817 13.5592C67.4837 13.5592 66.7593 13.3566 66.1085 12.9514C65.4701 12.5462 64.9606 11.9999 64.58 11.3123C64.2116 10.6125 64.0275 9.83285 64.0275 8.97341C64.0275 8.10169 64.2116 7.32205 64.58 6.63449C64.9606 5.93466 65.4701 5.38216 66.1085 4.97699C66.7593 4.55955 67.4837 4.35082 68.2817 4.35082C68.957 4.35082 69.5525 4.49816 70.0681 4.79282C70.5961 5.07521 71.0135 5.4681 71.3205 5.97149C71.6274 6.47488 71.7809 7.0458 71.7809 7.68424V10.2257C71.7809 10.8642 71.6274 11.4351 71.3205 11.9385C71.0258 12.4419 70.6145 12.8409 70.0865 13.1356C69.5586 13.418 68.957 13.5592 68.2817 13.5592ZM68.6132 11.6438C69.3622 11.6438 69.9638 11.3921 70.418 10.8887C70.8846 10.3854 71.1179 9.74077 71.1179 8.95499C71.1179 8.42705 71.0135 7.96049 70.8048 7.55532C70.5961 7.15016 70.3014 6.83707 69.9208 6.61607C69.5525 6.3828 69.1166 6.26616 68.6132 6.26616C68.1221 6.26616 67.6862 6.3828 67.3056 6.61607C66.9373 6.83707 66.6426 7.15016 66.4216 7.55532C66.2129 7.96049 66.1085 8.42705 66.1085 8.95499C66.1085 9.48294 66.2129 9.94949 66.4216 10.3547C66.6426 10.7598 66.9373 11.079 67.3056 11.3123C67.6862 11.5333 68.1221 11.6438 68.6132 11.6438ZM70.989 13.375V10.9992L71.3389 8.84449L70.989 6.70816V4.53499H73.0148V13.375H70.989Z" fill="#262626"/>
<path d="M75.2631 13.375V4.53499H77.2889V13.375H75.2631ZM77.2889 8.45774L76.5891 8.10782C76.5891 6.99055 76.8346 6.08813 77.3257 5.40057C77.8291 4.70074 78.5842 4.35082 79.591 4.35082C80.033 4.35082 80.432 4.43063 80.7881 4.59024C81.1441 4.74985 81.4756 5.00768 81.7826 5.36374L80.4566 6.72657C80.297 6.55468 80.1189 6.43191 79.9225 6.35824C79.726 6.28457 79.4989 6.24774 79.2411 6.24774C78.6763 6.24774 78.2097 6.42577 77.8414 6.78182C77.4731 7.13788 77.2889 7.69652 77.2889 8.45774Z" fill="#262626"/>
<path d="M88.8219 13.375V8.27357C88.8219 7.68424 88.6316 7.19927 88.251 6.81866C87.8827 6.43805 87.4038 6.24774 86.8145 6.24774C86.4216 6.24774 86.0717 6.33369 85.7647 6.50557C85.4578 6.67746 85.2184 6.91688 85.0465 7.22382C84.8746 7.53077 84.7887 7.88069 84.7887 8.27357L83.9967 7.83157C83.9967 7.1563 84.1441 6.56082 84.4387 6.04516C84.7334 5.51721 85.1386 5.10591 85.6542 4.81124C86.1822 4.5043 86.7715 4.35082 87.4222 4.35082C88.0852 4.35082 88.6746 4.52271 89.1902 4.86649C89.7059 5.19799 90.1111 5.63385 90.4057 6.17407C90.7004 6.70202 90.8477 7.25452 90.8477 7.83157V13.375H88.8219ZM82.7628 13.375V4.53499H84.7887V13.375H82.7628Z" fill="#262626"/>
<path d="M97.0133 13.5592C96.1293 13.5592 95.3312 13.3627 94.6191 12.9698C93.9193 12.5647 93.3606 12.0122 92.9432 11.3123C92.538 10.6125 92.3355 9.82671 92.3355 8.95499C92.3355 8.08327 92.538 7.30363 92.9432 6.61607C93.3484 5.91624 93.8947 5.36374 94.5823 4.95857C95.2821 4.55341 96.0556 4.35082 96.9028 4.35082C97.7254 4.35082 98.4498 4.54113 99.076 4.92174C99.7144 5.30235 100.212 5.82416 100.568 6.48716C100.936 7.15016 101.12 7.90524 101.12 8.75241C101.12 8.89974 101.108 9.05321 101.083 9.21282C101.071 9.36016 101.047 9.52591 101.01 9.71007H93.7535V8.05257H99.96L99.2049 8.71557C99.1803 8.17535 99.076 7.72107 98.8918 7.35274C98.7076 6.98441 98.4436 6.70202 98.0999 6.50557C97.7684 6.30913 97.3571 6.21091 96.866 6.21091C96.3503 6.21091 95.9022 6.32141 95.5215 6.54241C95.1409 6.76341 94.8463 7.07649 94.6375 7.48166C94.4288 7.87455 94.3245 8.34724 94.3245 8.89974C94.3245 9.45224 94.435 9.93721 94.656 10.3547C94.877 10.7721 95.19 11.0975 95.5952 11.3307C96.0004 11.5517 96.4669 11.6622 96.9949 11.6622C97.4492 11.6622 97.8666 11.5824 98.2472 11.4228C98.6401 11.2632 98.9716 11.0299 99.2417 10.723L100.531 12.0306C100.101 12.534 99.5793 12.9146 98.9655 13.1724C98.3516 13.4302 97.7009 13.5592 97.0133 13.5592Z" fill="#262626"/>
<path d="M102.744 13.375V4.53499H104.77V13.375H102.744ZM104.77 8.45774L104.07 8.10782C104.07 6.99055 104.316 6.08813 104.807 5.40057C105.31 4.70074 106.065 4.35082 107.072 4.35082C107.514 4.35082 107.913 4.43063 108.269 4.59024C108.625 4.74985 108.957 5.00768 109.264 5.36374L107.938 6.72657C107.778 6.55468 107.6 6.43191 107.404 6.35824C107.207 6.28457 106.98 6.24774 106.722 6.24774C106.157 6.24774 105.691 6.42577 105.323 6.78182C104.954 7.13788 104.77 7.69652 104.77 8.45774Z" fill="#262626"/>
<path d="M112.938 13.5592C112.446 13.5592 111.974 13.4978 111.519 13.375C111.065 13.2399 110.648 13.0558 110.267 12.8225C109.886 12.5769 109.555 12.2823 109.273 11.9385L110.562 10.6493C110.869 11.0054 111.219 11.2755 111.612 11.4597C112.017 11.6315 112.471 11.7175 112.974 11.7175C113.429 11.7175 113.772 11.65 114.006 11.5149C114.239 11.3799 114.356 11.1834 114.356 10.9256C114.356 10.6555 114.245 10.4467 114.024 10.2994C113.803 10.1521 113.515 10.0293 113.159 9.93107C112.815 9.82057 112.446 9.71007 112.054 9.59957C111.673 9.48907 111.305 9.34174 110.949 9.15757C110.605 8.96113 110.322 8.69716 110.101 8.36566C109.88 8.03416 109.77 7.60443 109.77 7.07649C109.77 6.51171 109.899 6.02674 110.157 5.62157C110.427 5.21641 110.801 4.90332 111.28 4.68232C111.771 4.46132 112.354 4.35082 113.03 4.35082C113.742 4.35082 114.368 4.47974 114.908 4.73757C115.461 4.98313 115.921 5.3576 116.289 5.86099L115 7.15016C114.742 6.83094 114.448 6.59152 114.116 6.43191C113.785 6.2723 113.404 6.19249 112.974 6.19249C112.569 6.19249 112.256 6.25388 112.035 6.37666C111.814 6.49943 111.704 6.67746 111.704 6.91074C111.704 7.1563 111.814 7.3466 112.035 7.48166C112.256 7.61671 112.538 7.73335 112.882 7.83157C113.238 7.9298 113.607 8.0403 113.987 8.16307C114.38 8.27357 114.748 8.43319 115.092 8.64191C115.448 8.83835 115.737 9.10846 115.958 9.45224C116.179 9.78374 116.289 10.2196 116.289 10.7598C116.289 11.6193 115.989 12.3007 115.387 12.8041C114.785 13.3075 113.969 13.5592 112.938 13.5592Z" fill="#262626"/>
</svg>
