<svg width="137" height="17" viewBox="0 0 137 17" fill="none" xmlns="http://www.w3.org/2000/svg">
<path d="M0.646729 16.4999V1.33324H3.1384V16.4999H0.646729ZM2.3584 16.4999V14.2249H10.2884V16.4999H2.3584Z" fill="#262626"/>
<path d="M12.2558 16.4999V6.0999H14.6392V16.4999H12.2558ZM13.4475 4.19324C13.0431 4.19324 12.7036 4.05601 12.4292 3.78157C12.1692 3.50713 12.0392 3.16768 12.0392 2.76324C12.0392 2.35879 12.1692 2.01935 12.4292 1.7449C12.7036 1.47046 13.0431 1.33324 13.4475 1.33324C13.8664 1.33324 14.2058 1.47046 14.4658 1.7449C14.7258 2.01935 14.8558 2.35879 14.8558 2.76324C14.8558 3.16768 14.7258 3.50713 14.4658 3.78157C14.2058 4.05601 13.8664 4.19324 13.4475 4.19324Z" fill="#262626"/>
<path d="M18.894 16.4999V1.76657H21.2773V16.4999H18.894ZM16.4023 8.26657V6.0999H30.0523V8.26657H16.4023ZM25.1773 16.4999V1.76657H27.5606V16.4999H25.1773Z" fill="#262626"/>
<path d="M31.7849 16.4999V0.899902H34.1683V16.4999H31.7849Z" fill="#262626"/>
<path d="M41.6524 16.7166C40.6124 16.7166 39.6735 16.4855 38.8358 16.0232C38.0124 15.5466 37.3552 14.8966 36.8641 14.0732C36.3874 13.2499 36.1491 12.3255 36.1491 11.2999C36.1491 10.2743 36.3874 9.35713 36.8641 8.54824C37.3408 7.7249 37.9835 7.0749 38.7924 6.59824C39.6158 6.12157 40.5258 5.88324 41.5224 5.88324C42.4902 5.88324 43.3424 6.10713 44.0791 6.5549C44.8302 7.00268 45.4152 7.61657 45.8341 8.39657C46.2674 9.17657 46.4841 10.0649 46.4841 11.0616C46.4841 11.2349 46.4696 11.4155 46.4408 11.6032C46.4263 11.7766 46.3974 11.9716 46.3541 12.1882H37.8174V10.2382H45.1191L44.2308 11.0182C44.2019 10.3827 44.0791 9.84824 43.8624 9.4149C43.6458 8.98157 43.3352 8.64935 42.9308 8.41824C42.5408 8.18713 42.0569 8.07157 41.4791 8.07157C40.8724 8.07157 40.3452 8.20157 39.8974 8.46157C39.4496 8.72157 39.103 9.0899 38.8574 9.56657C38.6119 10.0288 38.4891 10.5849 38.4891 11.2349C38.4891 11.8849 38.6191 12.4555 38.8791 12.9466C39.1391 13.4377 39.5074 13.8205 39.9841 14.0949C40.4608 14.3549 41.0096 14.4849 41.6308 14.4849C42.1652 14.4849 42.6563 14.391 43.1041 14.2032C43.5663 14.0155 43.9563 13.741 44.2741 13.3799L45.7908 14.9182C45.2852 15.5105 44.6713 15.9582 43.9491 16.2616C43.2269 16.5649 42.4613 16.7166 41.6524 16.7166Z" fill="#262626"/>
<path d="M53.0572 16.4999V1.33324H55.5489V16.4999H53.0572ZM54.7689 16.4999V14.2249H62.6989V16.4999H54.7689Z" fill="#262626"/>
<path d="M69.1166 16.7166C68.0766 16.7166 67.1377 16.4855 66.2999 16.0232C65.4766 15.5466 64.8194 14.8966 64.3283 14.0732C63.8516 13.2499 63.6133 12.3255 63.6133 11.2999C63.6133 10.2743 63.8516 9.35713 64.3283 8.54824C64.8049 7.7249 65.4477 7.0749 66.2566 6.59824C67.08 6.12157 67.99 5.88324 68.9866 5.88324C69.9544 5.88324 70.8066 6.10713 71.5433 6.5549C72.2944 7.00268 72.8794 7.61657 73.2983 8.39657C73.7316 9.17657 73.9483 10.0649 73.9483 11.0616C73.9483 11.2349 73.9338 11.4155 73.9049 11.6032C73.8905 11.7766 73.8616 11.9716 73.8183 12.1882H65.2816V10.2382H72.5833L71.695 11.0182C71.6661 10.3827 71.5433 9.84824 71.3266 9.4149C71.11 8.98157 70.7994 8.64935 70.395 8.41824C70.005 8.18713 69.5211 8.07157 68.9433 8.07157C68.3366 8.07157 67.8094 8.20157 67.3616 8.46157C66.9138 8.72157 66.5672 9.0899 66.3216 9.56657C66.0761 10.0288 65.9533 10.5849 65.9533 11.2349C65.9533 11.8849 66.0833 12.4555 66.3433 12.9466C66.6033 13.4377 66.9716 13.8205 67.4483 14.0949C67.9249 14.3549 68.4738 14.4849 69.0949 14.4849C69.6294 14.4849 70.1205 14.391 70.5683 14.2032C71.0305 14.0155 71.4205 13.741 71.7383 13.3799L73.255 14.9182C72.7494 15.5105 72.1355 15.9582 71.4133 16.2616C70.6911 16.5649 69.9255 16.7166 69.1166 16.7166Z" fill="#262626"/>
<path d="M80.2138 16.7166C79.275 16.7166 78.4227 16.4782 77.6572 16.0016C76.9061 15.5249 76.3066 14.8821 75.8588 14.0732C75.4255 13.2499 75.2088 12.3327 75.2088 11.3216C75.2088 10.296 75.4255 9.37879 75.8588 8.5699C76.3066 7.74657 76.9061 7.09657 77.6572 6.6199C78.4227 6.12879 79.275 5.88324 80.2138 5.88324C81.0083 5.88324 81.7088 6.05657 82.3155 6.40324C82.9366 6.73546 83.4277 7.19768 83.7888 7.7899C84.15 8.38213 84.3305 9.05379 84.3305 9.8049V12.7949C84.3305 13.546 84.15 14.2177 83.7888 14.8099C83.4422 15.4021 82.9583 15.8716 82.3372 16.2182C81.7161 16.5505 81.0083 16.7166 80.2138 16.7166ZM80.6038 14.4632C81.485 14.4632 82.1927 14.1671 82.7272 13.5749C83.2761 12.9827 83.5505 12.2243 83.5505 11.2999C83.5505 10.6788 83.4277 10.1299 83.1822 9.65324C82.9366 9.17657 82.59 8.80824 82.1422 8.54824C81.7088 8.27379 81.1961 8.13657 80.6038 8.13657C80.0261 8.13657 79.5133 8.27379 79.0655 8.54824C78.6322 8.80824 78.2855 9.17657 78.0255 9.65324C77.78 10.1299 77.6572 10.6788 77.6572 11.2999C77.6572 11.921 77.78 12.4699 78.0255 12.9466C78.2855 13.4232 78.6322 13.7988 79.0655 14.0732C79.5133 14.3332 80.0261 14.4632 80.6038 14.4632ZM83.3988 16.4999V13.7049L83.8105 11.1699L83.3988 8.65657V6.0999H85.7822V16.4999H83.3988Z" fill="#262626"/>
<path d="M88.4272 16.4999V6.0999H90.8105V16.4999H88.4272ZM90.8105 10.7149L89.9872 10.3032C89.9872 8.98879 90.2761 7.92712 90.8539 7.11824C91.4461 6.2949 92.3344 5.88324 93.5189 5.88324C94.0389 5.88324 94.5083 5.97713 94.9272 6.1649C95.3461 6.35268 95.7361 6.65601 96.0972 7.0749L94.5372 8.67824C94.3494 8.47601 94.14 8.33157 93.9089 8.2449C93.6778 8.15824 93.4105 8.1149 93.1072 8.1149C92.4428 8.1149 91.8939 8.32435 91.4605 8.74324C91.0272 9.16212 90.8105 9.81935 90.8105 10.7149Z" fill="#262626"/>
<path d="M104.379 16.4999V10.4982C104.379 9.8049 104.155 9.23435 103.707 8.78657C103.274 8.33879 102.71 8.1149 102.017 8.1149C101.555 8.1149 101.143 8.21601 100.782 8.41824C100.421 8.62046 100.139 8.90213 99.9371 9.26324C99.7349 9.62435 99.6338 10.036 99.6338 10.4982L98.7021 9.97824C98.7021 9.18379 98.8755 8.48324 99.2221 7.87657C99.5688 7.25546 100.045 6.77157 100.652 6.4249C101.273 6.06379 101.967 5.88324 102.732 5.88324C103.512 5.88324 104.205 6.08546 104.812 6.4899C105.419 6.8799 105.895 7.39268 106.242 8.02824C106.589 8.64935 106.762 9.29935 106.762 9.97824V16.4999H104.379ZM97.2504 16.4999V6.0999H99.6338V16.4999H97.2504Z" fill="#262626"/>
<path d="M114.016 16.7166C112.976 16.7166 112.037 16.4855 111.199 16.0232C110.376 15.5466 109.718 14.8966 109.227 14.0732C108.751 13.2499 108.512 12.3255 108.512 11.2999C108.512 10.2743 108.751 9.35713 109.227 8.54824C109.704 7.7249 110.347 7.0749 111.156 6.59824C111.979 6.12157 112.889 5.88324 113.886 5.88324C114.853 5.88324 115.706 6.10713 116.442 6.5549C117.193 7.00268 117.778 7.61657 118.197 8.39657C118.631 9.17657 118.847 10.0649 118.847 11.0616C118.847 11.2349 118.833 11.4155 118.804 11.6032C118.79 11.7766 118.761 11.9716 118.717 12.1882H110.181V10.2382H117.482L116.594 11.0182C116.565 10.3827 116.442 9.84824 116.226 9.4149C116.009 8.98157 115.698 8.64935 115.294 8.41824C114.904 8.18713 114.42 8.07157 113.842 8.07157C113.236 8.07157 112.708 8.20157 112.261 8.46157C111.813 8.72157 111.466 9.0899 111.221 9.56657C110.975 10.0288 110.852 10.5849 110.852 11.2349C110.852 11.8849 110.982 12.4555 111.242 12.9466C111.502 13.4377 111.871 13.8205 112.347 14.0949C112.824 14.3549 113.373 14.4849 113.994 14.4849C114.528 14.4849 115.02 14.391 115.467 14.2032C115.93 14.0155 116.32 13.741 116.637 13.3799L118.154 14.9182C117.648 15.5105 117.035 15.9582 116.312 16.2616C115.59 16.5649 114.825 16.7166 114.016 16.7166Z" fill="#262626"/>
<path d="M120.758 16.4999V6.0999H123.141V16.4999H120.758ZM123.141 10.7149L122.318 10.3032C122.318 8.98879 122.607 7.92712 123.185 7.11824C123.777 6.2949 124.665 5.88324 125.85 5.88324C126.37 5.88324 126.839 5.97713 127.258 6.1649C127.677 6.35268 128.067 6.65601 128.428 7.0749L126.868 8.67824C126.68 8.47601 126.471 8.33157 126.24 8.2449C126.008 8.15824 125.741 8.1149 125.438 8.1149C124.773 8.1149 124.225 8.32435 123.791 8.74324C123.358 9.16212 123.141 9.81935 123.141 10.7149Z" fill="#262626"/>
<path d="M132.75 16.7166C132.172 16.7166 131.616 16.6443 131.082 16.4999C130.547 16.341 130.056 16.1243 129.608 15.8499C129.161 15.561 128.771 15.2143 128.438 14.8099L129.955 13.2932C130.316 13.7121 130.728 14.0299 131.19 14.2466C131.667 14.4488 132.201 14.5499 132.793 14.5499C133.328 14.5499 133.732 14.4705 134.007 14.3116C134.281 14.1527 134.418 13.9216 134.418 13.6182C134.418 13.3005 134.288 13.0549 134.028 12.8816C133.768 12.7082 133.429 12.5638 133.01 12.4482C132.606 12.3182 132.172 12.1882 131.71 12.0582C131.262 11.9282 130.829 11.7549 130.41 11.5382C130.006 11.3071 129.673 10.9966 129.413 10.6066C129.153 10.2166 129.023 9.71101 129.023 9.0899C129.023 8.42546 129.175 7.8549 129.478 7.37824C129.796 6.90157 130.237 6.53324 130.8 6.27324C131.378 6.01324 132.064 5.88324 132.858 5.88324C133.696 5.88324 134.433 6.0349 135.068 6.33824C135.718 6.62712 136.26 7.06768 136.693 7.6599L135.177 9.17657C134.873 8.80101 134.527 8.51935 134.137 8.33157C133.747 8.14379 133.299 8.0499 132.793 8.0499C132.317 8.0499 131.948 8.12212 131.688 8.26657C131.428 8.41101 131.298 8.62046 131.298 8.8949C131.298 9.18379 131.428 9.40768 131.688 9.56657C131.948 9.72546 132.281 9.86268 132.685 9.97824C133.104 10.0938 133.537 10.2238 133.985 10.3682C134.447 10.4982 134.881 10.686 135.285 10.9316C135.704 11.1627 136.043 11.4805 136.303 11.8849C136.563 12.2749 136.693 12.7877 136.693 13.4232C136.693 14.4343 136.34 15.236 135.632 15.8282C134.924 16.4205 133.963 16.7166 132.75 16.7166Z" fill="#262626"/>
</svg>
